<?xml version="1.0" standalone="no"?>
<!DOCTYPE svg PUBLIC "-//W3C//DTD SVG 20010904//EN"
 "http://www.w3.org/TR/2001/REC-SVG-20010904/DTD/svg10.dtd">
<svg version="1.0" xmlns="http://www.w3.org/2000/svg"
 width="998.000000pt" height="478.000000pt" viewBox="0 0 998.000000 478.000000"
 preserveAspectRatio="xMidYMid meet">
<metadata>
Created by potrace 1.16, written by Peter Selinger 2001-2019
</metadata>
<g transform="translate(0.000000,478.000000) scale(0.100000,-0.100000)"
fill="#000000" stroke="none">
<path d="M20 2390 l0 -2390 4980 0 4980 0 0 2390 0 2390 -4980 0 -4980 0 0
-2390z m5951 460 c241 -46 411 -280 370 -511 -13 -79 -50 -134 -110 -166 -43
-22 -50 -23 -322 -23 -153 0 -280 -4 -283 -8 -14 -22 33 -78 89 -107 55 -28
66 -30 159 -29 82 1 115 6 175 28 41 14 84 26 96 26 62 0 145 -111 145 -195 0
-127 -136 -187 -425 -189 -172 -1 -223 8 -341 65 -142 67 -248 208 -290 384
-23 101 -15 266 18 357 66 179 211 308 400 358 82 21 233 26 319 10z m716 -5
c22 -10 97 -75 185 -162 l147 -146 148 150 c169 172 194 187 267 154 50 -22
121 -91 148 -145 35 -68 19 -97 -148 -267 -79 -80 -144 -150 -144 -154 0 -4
65 -75 144 -159 161 -171 177 -199 151 -263 -32 -75 -136 -163 -194 -163 -49
0 -64 11 -228 174 l-143 140 -142 -141 c-145 -142 -186 -173 -233 -173 -75 0
-205 129 -205 202 0 50 29 89 173 235 l141 143 -141 142 c-144 147 -173 186
-173 236 0 59 107 181 177 202 15 4 29 9 31 9 1 1 19 -6 39 -14z m-1589 -20
c23 -9 54 -31 68 -48 24 -29 26 -37 22 -107 -8 -128 -72 -220 -154 -220 -17 0
-52 7 -78 16 -93 32 -179 9 -230 -60 -20 -26 -21 -44 -26 -333 l-5 -305 -32
-28 c-23 -21 -46 -30 -88 -35 -117 -15 -210 9 -233 60 -9 19 -12 156 -12 511
l0 486 33 33 c27 27 44 34 91 40 72 9 163 -1 194 -21 13 -9 32 -33 42 -55 12
-28 19 -36 23 -25 8 19 104 84 154 102 49 18 172 12 231 -11z m-1681 -33 c53
-38 73 -93 73 -205 l0 -97 85 0 c74 0 85 -2 85 -17 0 -10 14 -178 30 -373 16
-195 30 -370 30 -387 l0 -33 -510 0 -510 0 0 58 c0 56 34 565 46 690 l6 62
114 0 114 0 0 88 c1 125 24 180 95 223 26 16 49 19 170 16 127 -2 143 -4 172
-25z"/>
<path d="M5754 2506 c-64 -29 -134 -107 -134 -151 0 -13 21 -15 148 -15 179 0
196 6 200 70 3 39 -1 49 -28 75 -26 25 -40 30 -93 32 -38 2 -74 -2 -93 -11z"/>
<path d="M3095 2771 c-63 -39 -70 -53 -73 -172 l-4 -109 56 0 56 0 0 83 c0 98
12 146 46 187 l26 30 -39 0 c-21 0 -51 -8 -68 -19z"/>
<path d="M3307 2748 c26 -38 28 -51 31 -150 l4 -108 60 0 60 0 -4 103 c-3 87
-7 107 -26 135 -29 40 -70 62 -117 62 l-35 0 27 -42z"/>
<path d="M3204 2739 c-28 -29 -29 -34 -32 -140 l-4 -109 71 0 71 0 0 85 c0 87
-14 141 -47 177 -21 24 -24 23 -59 -13z"/>
<path d="M2780 2438 c0 -13 -11 -178 -25 -368 -14 -190 -25 -348 -25 -352 0
-5 153 -8 340 -8 l339 0 5 33 c3 17 12 163 21 322 8 160 18 314 21 343 l5 52
-340 0 -341 0 0 -22z"/>
<path d="M3496 2448 c-2 -7 -11 -141 -20 -298 -9 -157 -20 -320 -23 -362 l-6
-78 122 0 c121 0 121 0 117 23 -3 12 -17 181 -33 375 l-27 352 -63 0 c-42 0
-65 -4 -67 -12z"/>
</g>
</svg>
